<svg width="58" height="66" viewBox="0 0 58 66" fill="none" xmlns="http://www.w3.org/2000/svg">
<path d="M43.9573 63.8298H15.1614C14.7028 63.9722 14.3906 64.3965 14.3906 64.8771C14.3906 65.3571 14.7028 65.7814 15.1614 65.9238H43.9573C44.4159 65.7814 44.7286 65.3571 44.7286 64.8771C44.7286 64.3965 44.4159 63.9722 43.9573 63.8298Z" fill="#00E86D"/>
<path d="M10.5559 63.8299C10.2236 63.7266 9.86145 63.7878 9.58106 63.9943C9.30017 64.2008 9.13477 64.5287 9.13477 64.8771C9.13477 65.225 9.30017 65.5529 9.58106 65.7594C9.86147 65.9659 10.2236 66.0271 10.5559 65.9239H11.7068C12.1654 65.7815 12.4781 65.3572 12.4781 64.8771C12.4781 64.3966 12.1654 63.9723 11.7068 63.8299H10.5559Z" fill="#00E86D"/>
<path d="M48.5604 63.8299H47.4094C46.9509 63.9723 46.6387 64.3965 46.6387 64.8771C46.6387 65.3572 46.9509 65.7815 47.4094 65.9239H48.5604C48.8931 66.0271 49.2553 65.9659 49.5357 65.7594C49.8161 65.5529 49.982 65.225 49.982 64.8771C49.982 64.5287 49.8161 64.2008 49.5357 63.9943C49.2553 63.7878 48.8932 63.7266 48.5604 63.8299Z" fill="#00E86D"/>
<path d="M49.0754 0H8.29799C7.69265 0 7.20182 0.490832 7.20182 1.09617V14.2502H3.82576C2.81279 14.2502 1.84138 14.6519 1.12455 15.3669C0.407147 16.0818 0.00294399 17.0522 0 18.0647V47.4645C0.0029361 48.4775 0.407147 49.4474 1.12455 50.1628C1.84147 50.8778 2.8129 51.2791 3.82576 51.2791H24.4224C24.3568 52.6933 23.6443 55.4553 18.1414 59.7303V59.7308C17.8356 60.0313 17.7333 60.4829 17.8791 60.8862C18.0255 61.2894 18.3935 61.5703 18.8211 61.6051H40.4375C40.8535 61.56 41.2078 61.2816 41.3497 60.8876C41.4921 60.4937 41.3977 60.0533 41.106 59.7528C36.1077 55.5766 35.0771 52.7815 34.8686 51.2795H53.5034L53.5039 51.279C54.5164 51.279 55.4878 50.8778 56.2051 50.1628C56.9221 49.4474 57.3263 48.4775 57.3292 47.4645V17.9995C57.3263 16.9871 56.9221 16.0167 56.2051 15.3017C55.4877 14.5863 54.5164 14.185 53.5039 14.185H50.1274V1.031C50.0941 0.467744 49.639 0.0219359 49.0752 0.00040095L49.0754 0ZM9.35031 2.09399H48.023V44.0001H9.35031V2.09399ZM3.86948 16.279H7.28964V44.0991H2.09407V17.999C2.09994 17.0467 2.87362 16.278 3.82588 16.278L3.86948 16.279ZM37.8506 59.5118L21.5948 59.5113C25.8151 55.4227 26.4947 52.8683 26.4947 51.2788H32.7321C32.9073 52.7919 33.7074 55.3679 37.7524 59.5113L37.8506 59.5118ZM53.5477 49.1853H3.82563C2.87333 49.1853 2.0997 48.4165 2.09381 47.4642V46.1929H55.2798V47.4642C55.2739 48.4165 54.5002 49.1853 53.548 49.1853H53.5477ZM53.5477 16.3003C54.5 16.3003 55.2736 17.0691 55.2795 18.0213V44.0988H50.1276V16.2788L53.5477 16.3003Z" fill="#00E86D"/>
<path d="M15.5319 30.2872H41.8399C42.1712 30.3841 42.5284 30.319 42.8044 30.112C43.0804 29.905 43.2429 29.5801 43.2429 29.2351C43.2429 28.8901 43.0804 28.5651 42.8044 28.3581C42.5284 28.1511 42.1712 28.086 41.8399 28.1829H15.5319C15.2006 28.086 14.8434 28.1511 14.5674 28.3581C14.2914 28.5651 14.1289 28.8901 14.1289 29.2351C14.1289 29.5801 14.2914 29.905 14.5674 30.112C14.8434 30.319 15.2006 30.3841 15.5319 30.2872Z" fill="#00E86D"/>
<path d="M34.9355 32.9619H22.4392C21.9807 33.1043 21.668 33.5286 21.668 34.0087C21.668 34.4887 21.9807 34.913 22.4392 35.0554H34.9355C35.394 34.913 35.7067 34.4887 35.7067 34.0087C35.7067 33.5286 35.394 33.1043 34.9355 32.9619Z" fill="#00E86D"/>
<path d="M30.748 37.4454H26.6267C26.1682 37.5878 25.8555 38.0121 25.8555 38.4922C25.8555 38.9722 26.1682 39.3965 26.6267 39.5389H30.748C31.2066 39.3965 31.5193 38.9722 31.5193 38.4922C31.5193 38.0121 31.2066 37.5878 30.748 37.4454Z" fill="#00E86D"/>
<path d="M27.678 23.5574C29.5587 23.5569 31.3922 22.9706 32.9245 21.8803C34.4566 20.79 35.611 19.25 36.2281 17.4736C36.2448 16.9916 35.9443 16.5551 35.4877 16.399C35.0316 16.2424 34.5266 16.4029 34.2443 16.7939C33.9981 17.5377 33.6277 18.235 33.1481 18.8545C31.7921 17.2749 29.8146 16.3662 27.7328 16.3662C25.6516 16.3662 23.6736 17.2749 22.318 18.8545C20.7867 16.8966 20.4163 14.2702 21.3466 11.9653C22.2764 9.66002 24.366 8.02604 26.8274 7.67903C29.2885 7.33207 31.7484 8.32449 33.2796 10.2824C33.6726 10.5677 34.207 10.5604 34.5917 10.2638C34.9768 9.96773 35.1207 9.45341 34.9455 9.00026C33.0414 6.52455 29.9942 5.20677 26.8862 5.51458C23.7779 5.82238 21.0486 7.71229 19.6672 10.5133C18.2858 13.3144 18.4472 16.6303 20.0949 19.2842C21.742 21.9375 24.6425 23.5528 27.7655 23.5572L27.678 23.5574ZM27.678 18.2517C29.2415 18.2649 30.7214 18.9568 31.7339 20.148C30.5565 21.0029 29.1388 21.4634 27.6834 21.4634C26.2286 21.4634 24.8108 21.0029 23.6335 20.148C24.6396 18.9554 26.1175 18.2625 27.678 18.2517Z" fill="#00E86D"/>
<path d="M24.6744 11.8714C24.6583 12.7121 24.9578 13.5285 25.5137 14.1597C26.0696 14.7905 26.8419 15.1903 27.6776 15.2808C28.5139 15.1903 29.2856 14.7905 29.8415 14.1597C30.3974 13.5284 30.6969 12.7122 30.6812 11.8714C30.6812 10.7988 30.1087 9.80688 29.1794 9.27045C28.2502 8.73402 27.105 8.73412 26.1757 9.27045C25.2464 9.80678 24.6744 10.7987 24.6744 11.8714H24.6744ZM28.7958 11.8714C28.7958 12.5839 28.2036 13.3953 27.6996 13.3953C27.1956 13.3953 26.6034 12.5839 26.6034 11.8714C26.6034 11.2661 27.0943 10.7753 27.6996 10.7753C28.3049 10.7753 28.7958 11.2661 28.7958 11.8714Z" fill="#00E86D"/>
<path d="M33.5749 11.7952C33.386 11.5001 33.0669 11.3137 32.717 11.2931C32.3676 11.2726 32.029 11.4204 31.8063 11.691C31.5837 11.9611 31.5039 12.3218 31.5915 12.6609C31.6786 13.0005 31.9233 13.2775 32.2487 13.4062L34.0133 14.864V14.8645C34.2032 15.0167 34.4386 15.1014 34.6823 15.1053C34.995 15.0994 35.2901 14.9595 35.4932 14.7216L38.5516 11.0388C38.8462 10.8494 39.0327 10.5308 39.0537 10.1809C39.0743 9.83101 38.9265 9.49287 38.6559 9.27021C38.3853 9.04756 38.0246 8.9673 37.6855 9.05489C37.3464 9.14248 37.0694 9.38667 36.9402 9.71259L34.5941 12.5626L33.5749 11.7952Z" fill="#00E86D"/>
</svg>
