<svg width="64" height="63" viewBox="0 0 64 63" fill="none" xmlns="http://www.w3.org/2000/svg">
<path d="M31.6739 18.1938C32.7889 18.1938 33.6955 19.1004 33.6955 20.2154H35.717C35.717 18.3373 34.4243 16.7674 32.6847 16.3158V14.1508H30.6632V16.3158C28.9236 16.7675 27.6309 18.3373 27.6309 20.2154C27.6309 22.445 29.4444 24.2584 31.6739 24.2584C32.7889 24.2584 33.6955 25.165 33.6955 26.28C33.6955 27.395 32.7889 28.3015 31.6739 28.3015C30.5589 28.3015 29.6524 27.395 29.6524 26.28H27.6309C27.6309 28.1581 28.9236 29.7279 30.6632 30.1796V32.3446H32.6847V30.1796C34.4243 29.7279 35.717 28.1581 35.717 26.28C35.717 24.0504 33.9035 22.2369 31.6739 22.2369C30.5589 22.2369 29.6524 21.3304 29.6524 20.2154C29.6524 19.1004 30.5589 18.1938 31.6739 18.1938Z" fill="#00E86D"/>
<path d="M63.007 26.28V18.1938H56.9423V0H16.0622L6.40446 10.7304V18.1938H0.339844V26.28H6.40446V29.7076L2.53916 28.3015H0.339844V50.5385H9.16877L9.69851 48.8422L13.97 51.4044L16.802 52.1421C16.6174 52.5487 16.5123 52.9887 16.5123 53.4485C16.5123 55.1505 17.8687 56.5322 19.5559 56.5918C19.6155 58.2789 20.998 59.6355 22.6992 59.6355C23.0589 59.6355 23.4108 59.5615 23.7465 59.4423C24.1495 60.7211 25.3322 61.657 26.7423 61.657C27.4156 61.657 28.0694 61.4278 28.6082 61.0311L29.3563 61.7793C29.9285 62.3524 30.6902 62.6678 31.5002 62.6678H31.6739C32.9829 62.6678 34.0898 61.8298 34.5131 60.6666C35.0834 61.2821 35.8808 61.657 36.7278 61.657C38.1307 61.657 39.3034 60.695 39.6477 59.399C40.0028 59.5416 40.3796 59.6355 40.7708 59.6355C42.1738 59.6355 43.3465 58.6734 43.6907 57.3775C44.0458 57.5201 44.4226 57.6139 44.8138 57.6139C46.4857 57.6139 47.8462 56.2535 47.8462 54.5816V54.245C47.8462 53.593 47.6309 52.9473 47.2388 52.4256L46.9044 51.9798L50.6573 48.9768L51.1465 50.5386H63.0077V28.3017H60.9862L56.9431 29.446V26.2802L63.007 26.28ZM16.5116 2.52172V10.1075H9.68397L16.5116 2.52172ZM8.42542 12.129H18.5331V2.02131H54.9208V18.1936H48.8562V14.2828L36.9256 22.2367L48.8562 30.1906V26.2798H54.9208V30.0178L45.5613 32.667L46.4367 35.4678L33.835 36.3076C32.8928 36.3703 31.9872 36.6158 31.1412 37.0386L28.9779 38.1202C28.0177 37.6541 26.9677 37.3982 25.8909 37.3982H18.7722L14.0176 35.0211L14.7323 32.7356L8.42584 30.442V26.2799H14.4904V30.1907L26.421 22.2368L14.4904 14.2829V18.1937H8.42584L8.42542 12.129ZM2.3608 24.2582V20.2152H16.5116V18.0613L22.7752 22.2367L16.5116 26.412V24.2582H2.3608ZM7.68265 48.5167H2.3608V30.3875L12.2271 33.9749L7.68265 48.5167ZM14.8812 49.5942L10.3197 46.8571L13.4074 36.9759L18.2943 39.4198H25.8914C26.8394 39.4198 27.7654 39.6856 28.5691 40.1878L34.0656 43.6225C34.4658 43.873 34.7054 44.3057 34.7054 44.7786V45.1315C34.7054 45.8837 34.094 46.4952 33.3409 46.4952C33.0941 46.4952 32.8527 46.4284 32.6406 46.3011L28.8444 44.0237C27.3301 43.1172 25.2855 43.3699 24.0374 44.6162L18.2237 50.4299L14.8812 49.5942ZM32.6834 59.6352C32.6834 60.192 32.2304 60.6459 31.6726 60.6459H31.4989C31.2331 60.6459 30.9723 60.5376 30.7842 60.3499L29.9471 59.5129C29.7563 59.322 29.6511 59.067 29.6511 58.7972V58.6244C29.6511 58.0676 30.1042 57.6136 30.6619 57.6136H30.8356C31.1014 57.6136 31.3622 57.7219 31.5504 57.9096L32.3874 58.7467C32.5783 58.9375 32.6834 59.1925 32.6834 59.4623V59.6352ZM37.7373 58.6244C37.7373 59.1812 37.2842 59.6352 36.7265 59.6352C36.4102 59.6352 36.1078 59.4844 35.9179 59.2309L33.8963 56.5352C33.7659 56.3614 33.6942 56.1462 33.6942 55.9287V55.5921C33.6942 55.0352 34.1472 54.5813 34.705 54.5813C35.0213 54.5813 35.3236 54.732 35.5136 54.9856L37.5351 57.6813C37.6655 57.855 37.7373 58.0703 37.7373 58.2878V58.6244ZM41.7803 56.6029C41.7803 57.1597 41.3273 57.6136 40.7696 57.6136C40.4533 57.6136 40.1509 57.4629 39.961 57.2093L37.9394 54.5136C37.809 54.3399 37.7373 54.1247 37.7373 53.9072V53.5705C37.7373 53.0137 38.1903 52.5598 38.748 52.5598C39.0644 52.5598 39.3667 52.7105 39.5566 52.9641L41.5782 55.6598C41.7086 55.8335 41.7803 56.0487 41.7803 56.2662V56.6029ZM45.8234 54.5813C45.8234 55.1381 45.3704 55.5921 44.8126 55.5921C44.4963 55.5921 44.194 55.4414 44.004 55.1878L41.9825 52.4921C41.8521 52.3184 41.7803 52.1031 41.7803 51.8856V51.549C41.7803 50.9922 42.2334 50.5382 42.7911 50.5382C43.1074 50.5382 43.4098 50.6889 43.5997 50.9425L45.6213 53.6382C45.7517 53.812 45.8234 54.0272 45.8234 54.2447V54.5813ZM45.6899 50.3614L45.217 49.7296C44.6479 48.9707 43.7415 48.5167 42.7911 48.5167C41.3882 48.5167 40.2154 49.4788 39.8712 50.7747C39.5161 50.6321 39.1393 50.5383 38.7481 50.5383C37.3451 50.5383 36.1724 51.5003 35.8282 52.7963C35.473 52.6537 35.0963 52.5598 34.705 52.5598C33.0332 52.5598 31.6727 53.9203 31.6727 55.5921V55.7234C31.4029 55.6458 31.1249 55.5921 30.8357 55.5921H30.6619C28.9901 55.5921 27.6296 56.9526 27.6296 58.6244V58.7973C27.6296 58.9268 27.6508 59.0518 27.6671 59.1795L27.5426 59.304C27.3314 59.5138 27.0394 59.6352 26.7412 59.6352C26.1167 59.6352 25.6081 59.1267 25.6081 58.5021C25.6081 58.1989 25.7254 57.9151 25.9398 57.7008L30.3659 53.2746L28.9368 51.8456L23.4999 57.2825C23.2883 57.4923 22.9964 57.6137 22.6981 57.6137C22.0736 57.6137 21.565 57.1051 21.565 56.4806C21.565 56.1774 21.6824 55.8936 21.8967 55.6792L27.3336 50.2423L25.9045 48.8133L20.4676 54.2502C20.256 54.46 19.9641 54.5814 19.6658 54.5814C19.0413 54.5814 18.5327 54.0728 18.5327 53.4483C18.5327 53.1451 18.6501 52.8613 18.8644 52.6469L25.4656 46.0457C26.0721 45.4393 27.0688 45.3161 27.8034 45.7579L31.5987 48.0353C32.1258 48.3498 32.7281 48.5167 33.3405 48.5167C35.2072 48.5167 36.7265 46.9987 36.7265 45.1315V44.7787C36.7265 43.6032 36.1313 42.5297 35.1355 41.9078L31.041 39.3497L32.0436 38.8484C32.6483 38.5461 33.294 38.3701 33.9672 38.3259L47.0552 37.4536L50.0085 46.9061L45.6899 50.3614ZM60.9854 30.3632V48.5166H52.6312L48.1081 34.0424L60.9854 30.3632ZM46.8346 24.2579V26.4117L40.571 22.2364L46.8346 18.061V20.2148H60.9854V24.2579H46.8346Z" fill="#00E86D"/>
<path d="M20.5547 4.04309H52.8993V6.06463H20.5547V4.04309Z" fill="#00E86D"/>
<path d="M20.5547 8.08618H52.8993V10.1077H20.5547V8.08618Z" fill="#00E86D"/>
</svg>
