<svg width="63" height="64" viewBox="0 0 63 64" fill="none" xmlns="http://www.w3.org/2000/svg">
<path d="M56.9143 33.3668C57.2452 34.3031 58.0006 35.0268 58.9504 35.3177C59.8997 35.6081 60.9312 35.4314 61.7295 34.8409C62.5278 34.25 62.999 33.3161 62.999 32.3229C62.999 31.3298 62.5279 30.3959 61.7295 29.8049C60.9311 29.2144 59.8997 29.0378 58.9504 29.3281C58.0006 29.619 57.2451 30.3427 56.9143 31.2791H50.4586V22.3155L52.9785 19.7956H54.8264C55.1573 20.7319 55.9127 21.4557 56.8625 21.7465C57.8118 22.0369 58.8433 21.8603 59.6416 21.2698C60.4399 20.6788 60.9111 19.7449 60.9111 18.7518C60.9111 17.7586 60.4399 16.8247 59.6416 16.2338C58.8432 15.6433 57.8118 15.4666 56.8625 15.757C55.9127 16.0478 55.1572 16.7716 54.8264 17.7079H52.5465C52.2697 17.7079 52.004 17.8179 51.8083 18.0136L49.2212 20.6007L43.1509 17.3864V11.4443H46.4747C46.8056 12.3806 47.5611 13.1043 48.5108 13.3952C49.4602 13.6855 50.4916 13.5089 51.2899 12.9184C52.0882 12.3275 52.5594 11.3935 52.5594 10.4004C52.5594 9.40729 52.0883 8.47334 51.2899 7.8824C50.4915 7.29192 49.4602 7.11528 48.5108 7.40563C47.561 7.69645 46.8055 8.42022 46.4747 9.35657H42.1069C41.5304 9.35657 41.063 9.82402 41.063 10.4005V16.2811L32.7113 11.8621V7.0767C33.6476 6.7458 34.3714 5.99033 34.6623 5.04057C34.9526 4.09123 34.776 3.05981 34.1855 2.26151C33.5946 1.46317 32.6606 0.991943 31.6675 0.991943C30.6744 0.991943 29.7404 1.46312 29.1495 2.26151C28.559 3.05985 28.3824 4.09123 28.6727 5.04057C28.9635 5.99038 29.6873 6.74585 30.6236 7.0767V11.8621L22.272 16.283V10.4005C22.272 10.1237 22.162 9.85804 21.9663 9.6623C21.7706 9.46656 21.5049 9.35657 21.2281 9.35657H16.8603C16.5294 8.42027 15.7739 7.69651 14.8242 7.40563C13.8748 7.11528 12.8434 7.29191 12.0451 7.8824C11.2468 8.47335 10.7755 9.40729 10.7755 10.4004C10.7755 11.3935 11.2467 12.3275 12.0451 12.9184C12.8434 13.5089 13.8748 13.6855 14.8242 13.3952C15.774 13.1044 16.5294 12.3806 16.8603 11.4443H20.1841V17.3864L14.1133 20.6007L11.5262 18.0136H11.5267C11.331 17.8179 11.0653 17.7079 10.7885 17.7079H8.5086C8.1777 16.7716 7.42223 16.0479 6.47247 15.757C5.52313 15.4666 4.4917 15.6433 3.69341 16.2338C2.89507 16.8247 2.42384 17.7586 2.42384 18.7518C2.42384 19.7449 2.89502 20.6788 3.69341 21.2698C4.49175 21.8603 5.52313 22.0369 6.47247 21.7465C7.42228 21.4557 8.17775 20.732 8.5086 19.7956H10.3565L12.8764 22.3155V31.2791H6.42069C6.0898 30.3428 5.33432 29.619 4.38456 29.3281C3.43522 29.0378 2.4038 29.2144 1.6055 29.8049C0.80716 30.3959 0.335938 31.3298 0.335938 32.3229C0.335938 33.3161 0.807112 34.25 1.6055 34.8409C2.40385 35.4314 3.43522 35.6081 4.38456 35.3177C5.33437 35.0269 6.08985 34.3031 6.42069 33.3668H12.8764V42.3303L10.3565 44.8503H8.5086C8.1777 43.914 7.42223 43.1902 6.47247 42.8993C5.52313 42.609 4.4917 42.7856 3.69341 43.3761C2.89507 43.967 2.42384 44.901 2.42384 45.8941C2.42384 46.8872 2.89502 47.8212 3.69341 48.4121C4.49175 49.0026 5.52313 49.1792 6.47247 48.8889C7.42228 48.5981 8.17775 47.8743 8.5086 46.938H10.7885C11.0653 46.938 11.331 46.828 11.5267 46.6322L14.1138 44.0451L20.1841 47.2594V53.2016H16.8603C16.5294 52.2653 15.7739 51.5415 14.8242 51.2507C13.8748 50.9603 12.8434 51.137 12.0451 51.7274C11.2467 52.3184 10.7755 53.2523 10.7755 54.2455C10.7755 55.2386 11.2467 56.1725 12.0451 56.7635C12.8434 57.354 13.8748 57.5306 14.8242 57.2402C15.774 56.9494 16.5294 56.2256 16.8603 55.2893H21.2281C21.5049 55.2893 21.7705 55.1793 21.9663 54.9836C22.162 54.7878 22.272 54.5222 22.272 54.2453V48.3647L30.6236 52.7838V57.5674C29.6873 57.8983 28.9636 58.6537 28.6727 59.603C28.3823 60.5528 28.559 61.5842 29.1495 62.3826C29.7404 63.1809 30.6744 63.6517 31.6675 63.6517C32.6606 63.6517 33.5946 63.181 34.1855 62.3826C34.776 61.5842 34.9526 60.5528 34.6623 59.603C34.3714 58.6537 33.6477 57.8982 32.7113 57.5674V52.7838L41.0629 48.3628V54.2453C41.0629 54.5222 41.1729 54.7878 41.3687 54.9836C41.5644 55.1793 41.8301 55.2893 42.1069 55.2893H46.4747C46.8056 56.2256 47.561 56.9494 48.5108 57.2402C49.4601 57.5306 50.4916 57.354 51.2899 56.7635C52.0882 56.1725 52.5594 55.2386 52.5594 54.2455C52.5594 53.2523 52.0883 52.3184 51.2899 51.7274C50.4915 51.137 49.4601 50.9603 48.5108 51.2507C47.561 51.5415 46.8055 52.2653 46.4747 53.2016H43.1509V47.2594L49.2216 44.0451L51.8087 46.6322H51.8083C52.004 46.828 52.2697 46.938 52.5465 46.938H54.8264C55.1573 47.8743 55.9127 48.598 56.8625 48.8889C57.8118 49.1792 58.8433 49.0026 59.6416 48.4121C60.4399 47.8212 60.9111 46.8872 60.9111 45.8941C60.9111 44.901 60.4399 43.967 59.6416 43.3761C58.8432 42.7856 57.8118 42.609 56.8625 42.8993C55.9127 43.1901 55.1572 43.9139 54.8264 44.8503H52.9785L50.4586 42.3303V33.3668H56.9143ZM59.8542 31.2789C60.2764 31.2789 60.6572 31.5333 60.8184 31.9234C60.9801 32.3135 60.8911 32.7623 60.5924 33.0611C60.2937 33.3598 59.8449 33.4488 59.4548 33.2871C59.0647 33.1258 58.8102 32.7451 58.8102 32.3228C58.8102 31.7463 59.2777 31.2789 59.8542 31.2789ZM57.7663 17.7075C58.1885 17.7075 58.5693 17.962 58.7305 18.352C58.8922 18.7421 58.8032 19.1909 58.5045 19.4897C58.2057 19.7884 57.7569 19.8774 57.3669 19.7157C56.9768 19.5544 56.7223 19.1737 56.7223 18.7514C56.7223 18.1749 57.1898 17.7075 57.7663 17.7075ZM49.4146 9.35587C49.8369 9.35587 50.2176 9.61033 50.3789 10.0004C50.5406 10.3905 50.4516 10.8393 50.1529 11.138C49.8541 11.4368 49.4053 11.5258 49.0152 11.3641C48.6251 11.2028 48.3707 10.8221 48.3707 10.3998C48.3707 9.82332 48.8381 9.35587 49.4146 9.35587ZM13.9202 11.4438C13.498 11.4438 13.1172 11.1893 12.956 10.7992C12.7943 10.4092 12.8833 9.96035 13.182 9.6616C13.4808 9.36285 13.9296 9.27384 14.3197 9.43556C14.7097 9.59682 14.9642 9.97759 14.9642 10.3998C14.9642 10.6767 14.8542 10.9423 14.6585 11.138C14.4627 11.3338 14.1971 11.4438 13.9202 11.4438ZM5.56862 19.7954C5.14638 19.7954 4.76561 19.5409 4.60437 19.1509C4.44264 18.7608 4.53166 18.312 4.8304 18.0132C5.12913 17.7145 5.57794 17.6255 5.96803 17.7872C6.35811 17.9484 6.61258 18.3292 6.61258 18.7514C6.61258 19.0283 6.50259 19.2939 6.30685 19.4897C6.11111 19.6854 5.84545 19.7954 5.56862 19.7954ZM3.48072 33.3668C3.05847 33.3668 2.67771 33.1123 2.51646 32.7222C2.35474 32.3322 2.44376 31.8834 2.74249 31.5846C3.04123 31.2859 3.49003 31.1968 3.88013 31.3586C4.27021 31.5198 4.52467 31.9006 4.52467 32.3228C4.52467 32.5997 4.41468 32.8653 4.21894 33.0611C4.0232 33.2568 3.75755 33.3668 3.48072 33.3668ZM5.56862 46.9382C5.14638 46.9382 4.76561 46.6837 4.60437 46.2936C4.44264 45.9035 4.53166 45.4547 4.8304 45.156C5.12913 44.8572 5.57794 44.7682 5.96803 44.93C6.35811 45.0912 6.61258 45.472 6.61258 45.8942C6.61258 46.171 6.50259 46.4367 6.30685 46.6324C6.11111 46.8282 5.84545 46.9382 5.56862 46.9382ZM13.9202 55.2898C13.498 55.2898 13.1172 55.0353 12.956 54.6452C12.7943 54.2552 12.8833 53.8064 13.182 53.5076C13.4808 53.2089 13.9296 53.1199 14.3197 53.2816C14.7097 53.4428 14.9642 53.8236 14.9642 54.2458C14.9642 54.5227 14.8542 54.7883 14.6585 54.9841C14.4627 55.1798 14.1971 55.2898 13.9202 55.2898ZM49.4146 53.2019C49.8369 53.2019 50.2176 53.4563 50.3789 53.8464C50.5406 54.2365 50.4516 54.6853 50.1529 54.9841C49.8541 55.2828 49.4053 55.3718 49.0152 55.2101C48.6251 55.0488 48.3707 54.6681 48.3707 54.2458C48.3707 53.6693 48.8381 53.2019 49.4146 53.2019ZM57.7663 44.8503C58.1885 44.8503 58.5693 45.1047 58.7305 45.4948C58.8922 45.8849 58.8032 46.3337 58.5045 46.6324C58.2057 46.9312 57.7569 47.0202 57.3669 46.8585C56.9768 46.6972 56.7223 46.3164 56.7223 45.8942C56.7223 45.3177 57.1898 44.8503 57.7663 44.8503ZM31.6674 3.09215C32.0897 3.09215 32.4705 3.34661 32.6317 3.73669C32.7934 4.12677 32.7044 4.57558 32.4057 4.87433C32.1069 5.17308 31.6581 5.26208 31.268 5.10036C30.878 4.9391 30.6235 4.55834 30.6235 4.1361C30.6235 3.5596 31.0909 3.09215 31.6674 3.09215ZM31.6674 61.5535C31.2452 61.5535 30.8644 61.299 30.7032 60.909C30.5415 60.5189 30.6305 60.0701 30.9292 59.7713C31.228 59.4726 31.6768 59.3836 32.0669 59.5453C32.4569 59.7066 32.7114 60.0873 32.7114 60.5096C32.7114 60.7864 32.6014 61.052 32.4057 61.2478C32.2099 61.4435 31.9443 61.5535 31.6674 61.5535ZM48.3707 42.136L31.6674 50.9774L14.9642 42.136V22.5097L31.6674 13.6664L48.3707 22.5097V42.136Z" fill="#00E86D"/>
<path d="M31.2006 15.7294L16.5853 23.037C16.2311 23.2141 16.0078 23.5758 16.0078 23.9715V40.6747C16.0055 41.0723 16.2297 41.4367 16.5853 41.6143L31.2006 48.9219C31.4942 49.0687 31.84 49.0687 32.1336 48.9219L46.749 41.6143C47.1046 41.4367 47.3287 41.0723 47.3264 40.6747V23.9715C47.3264 23.5758 47.1032 23.2141 46.749 23.037L32.1336 15.7294C31.84 15.5826 31.4942 15.5826 31.2006 15.7294ZM45.2385 24.6165V40.03L31.6671 46.8157L18.0957 40.03V24.6165L31.6671 17.8308L45.2385 24.6165Z" fill="#00E86D"/>
<path d="M24.3595 32.0759L22.1672 27.6801C21.9542 27.2401 21.4644 27.0066 20.9885 27.1185C20.5127 27.2308 20.1781 27.6577 20.1837 28.1466V37.5422H22.2716V32.5689L24.469 36.9652V36.9647C24.6852 37.3986 25.1713 37.6265 25.643 37.5151C26.1146 37.4042 26.4478 36.9829 26.4474 36.4982V27.1026H24.3595V32.0759Z" fill="#00E86D"/>
<path d="M28.5352 28.1471V37.5427H30.6231V33.3669H33.7549V31.279H30.6231V29.1911H34.7989V27.1031H29.5791C29.0026 27.1031 28.5352 27.5706 28.5352 28.1471Z" fill="#00E86D"/>
<path d="M38.9746 37.5427H41.0625V29.1911H43.1504V27.1031H36.8867V29.1911H38.9746V37.5427Z" fill="#00E86D"/>
</svg>
