<svg width="59" height="60" viewBox="0 0 59 60" fill="none" xmlns="http://www.w3.org/2000/svg">
<path d="M29.8557 14.727H29.8115C25.1256 14.727 21.252 18.5255 21.252 23.1779C21.252 27.8292 25.1238 31.6108 29.8115 31.6108H29.8136C30.3295 31.613 30.8247 31.41 31.1912 31.0467C31.5574 30.6825 31.7643 30.1884 31.766 29.6733L29.8557 14.727ZM29.8557 14.727C33.5923 14.7458 36.8107 17.1511 37.9457 20.5212C38.1073 21.0087 38.0698 21.54 37.8413 21.9991L37.8412 21.9993C37.6126 22.4591 37.2121 22.8095 36.7268 22.9746C36.2395 23.136 35.7084 23.0984 35.2495 22.87L35.249 22.8697C34.7893 22.6416 34.4386 22.2403 34.2736 21.7543C33.6684 19.9583 31.9226 18.6175 29.8115 18.6175C27.1789 18.6175 25.143 20.6532 25.143 23.1779C25.143 25.7055 27.1818 27.7205 29.8115 27.7205L29.8136 27.7205C30.3316 27.7183 30.8295 27.9236 31.196 28.29L31.196 28.29C31.5628 28.6568 31.7677 29.1542 31.766 29.6732L29.8557 14.727Z" fill="#00E86D" stroke="#242A38"/>
<path d="M29.6125 27.7204L29.5215 27.72C29.0036 27.7179 28.5057 27.923 28.1387 28.2895C27.7723 28.6564 27.5674 29.1539 27.5691 29.6728L29.6125 27.7204ZM29.6125 27.7204C34.2568 27.7682 38.0831 31.549 38.0831 36.1709C38.0831 40.8209 34.2091 44.6038 29.5235 44.6038C25.7676 44.6038 22.5266 42.2082 21.3892 38.8266L21.3887 38.8252C21.2224 38.3358 21.2575 37.8005 21.4863 37.3374C21.7151 36.8743 22.1193 36.5209 22.6089 36.356L22.6092 36.3558C23.1 36.1901 23.6369 36.2273 24.1007 36.4592C24.5644 36.6911 24.9164 37.0983 25.0782 37.5903L25.0782 37.5903L25.0792 37.5935C25.6841 39.3914 27.4174 40.7134 29.5236 40.7134C32.1479 40.7134 34.1921 38.7006 34.1921 36.1708C34.1921 33.6447 32.1515 31.6104 29.5236 31.6104L29.5215 31.6104C29.0057 31.6126 28.5104 31.4096 28.1438 31.0461C27.7777 30.682 27.5709 30.188 27.5691 29.6728L29.6125 27.7204Z" fill="#00E86D" stroke="#242A38"/>
<path d="M32.2654 13.1974V16.6806C32.2632 17.3288 32.0029 17.9498 31.5429 18.4071C31.0824 18.8638 30.4597 19.1192 29.8109 19.1165L32.2654 13.1974ZM32.2654 13.1974C32.2675 12.5458 32.01 11.9199 31.5494 11.4589C31.2845 11.1943 30.9652 10.9967 30.6179 10.8768L32.2654 13.1974ZM29.8126 11.243L29.823 11.2429C30.3376 11.2439 30.8314 11.4486 31.1958 11.8124C31.5621 12.1792 31.7671 12.6772 31.7654 13.1957V13.1974V16.6797C31.7634 17.1946 31.5566 17.6884 31.1905 18.0523C30.8241 18.4157 30.3289 18.6187 29.813 18.6165L29.8126 18.6165C29.2992 18.6148 28.8074 18.4099 28.4445 18.047L28.4443 18.0468C28.0815 17.6844 27.877 17.1926 27.875 16.6797V13.1974H27.875L27.875 13.1953C27.8728 12.6795 28.0758 12.1843 28.4392 11.8177C28.8026 11.4517 29.2966 11.2447 29.8126 11.243Z" fill="#00E86D" stroke="#242A38"/>
<path d="M29.8126 40.7133L29.8218 40.7133C30.3367 40.7135 30.831 40.9185 31.1953 41.2828L31.1953 41.2828C31.5622 41.6496 31.7671 42.147 31.7654 42.6661L32.1023 42.6672H31.7654V42.6677V46.1495C31.7634 46.6651 31.5564 47.1588 31.1906 47.5221L31.1905 47.5221C30.8241 47.886 30.3289 48.089 29.813 48.0868L29.8126 48.0868C29.2992 48.0851 28.8074 47.8802 28.4445 47.5173L28.4445 47.5173C28.0814 47.1543 27.877 46.6629 27.875 46.1495V42.6677H27.875L27.875 42.6656C27.8728 42.1496 28.076 41.6539 28.4392 41.2881L28.4395 41.2878C28.8025 40.9217 29.2969 40.715 29.8126 40.7133ZM32.2654 42.6686V42.6677V42.6686Z" fill="#00E86D" stroke="#242A38"/>
<path d="M49.2151 0.828232V0.828157C48.6989 0.829894 48.2051 1.03652 47.842 1.40271L47.8415 1.40315C47.4781 1.76871 47.2752 2.26432 47.277 2.78092L47.277 2.78261L47.277 6.6624V7.86951L46.4234 7.01595L45.702 6.29455L45.6799 6.27246C45.3176 5.92457 44.8349 5.72997 44.3323 5.72997C43.8184 5.72997 43.3258 5.93299 42.9611 6.29493C42.5947 6.66011 42.3887 7.15629 42.3887 7.67296C42.3887 8.19031 42.5948 8.6861 42.9613 9.05128L47.7055 13.778H47.7076L47.8543 13.9257C48.2148 14.2888 48.7039 14.4949 49.2154 14.4999C49.7321 14.4989 50.2273 14.2923 50.5912 13.9257L50.5932 13.9237L50.5932 13.9237L55.4837 9.05127L55.4838 9.05109C55.8506 8.68611 56.0563 8.19052 56.0563 7.67296C56.0563 7.15594 55.8506 6.65991 55.4841 6.29506L49.2151 0.828232ZM49.2151 0.828232L49.2201 0.82813M49.2151 0.828232L49.2201 0.82813M49.2201 0.82813C49.7367 0.827005 50.233 1.03215 50.5985 1.39764L50.5985 1.39766C50.9654 1.76446 51.1702 2.26178 51.168 2.78052L51.1629 3.99517L51.1686 3.98955V6.66185V7.86896L52.0221 7.01541L52.7425 6.29506C52.7426 6.29489 52.7428 6.29471 52.743 6.29454C53.107 5.933 53.5999 5.72997 54.1133 5.72997C54.6273 5.72997 55.1198 5.93307 55.4839 6.29485L49.2201 0.82813Z" fill="#00E86D" stroke="#242A38"/>
<path d="M54.7053 16.6967L54.7126 16.6967C54.9577 16.6973 55.1933 16.7948 55.3678 16.9688C55.5432 17.1447 55.641 17.3829 55.6399 17.6302H55.6399V17.6324V19.903V21.1101L56.4934 20.2565L56.9145 19.8354C56.9147 19.8353 56.9149 19.8351 56.9151 19.8349C57.2786 19.4745 57.8642 19.475 58.2266 19.8351C58.4019 20.0099 58.5005 20.2469 58.5005 20.4945C58.5005 20.7419 58.4017 20.9793 58.2267 21.1532L58.2263 21.1537L55.3647 24.0049L55.3647 24.0049L55.363 24.0066C55.1885 24.1822 54.9524 24.2809 54.7059 24.2814C54.4617 24.2787 54.2278 24.18 54.0554 24.0066L54.0537 24.0049L51.1921 21.1537L51.1917 21.1532C51.0167 20.9793 50.918 20.7419 50.918 20.4945C50.918 20.2468 51.0165 20.0098 51.1919 19.8351C51.5547 19.4746 52.1411 19.4748 52.5037 19.8352L52.5961 19.9271L52.925 20.256L53.7785 21.1096V19.9024V17.6324H53.7785L53.7785 17.6302C53.7775 17.384 53.8745 17.1469 54.0487 16.9713C54.2228 16.7962 54.4592 16.6974 54.7053 16.6967Z" fill="#00E86D" stroke="#242A38"/>
<path d="M3.95859 35.3352L3.95894 35.3349C4.13278 35.1596 4.36869 35.0608 4.61447 35.0598C4.61481 35.0598 4.61514 35.0598 4.61548 35.0598L4.61661 35.0598C4.86437 35.0588 5.10257 35.157 5.27808 35.3325L5.27809 35.3325C5.44503 35.4994 5.54208 35.7237 5.55017 35.9598V35.9961V38.2661V39.4732L6.40373 38.6197L6.82488 38.1985C6.82506 38.1984 6.82525 38.1982 6.82544 38.198C7.18865 37.8378 7.77423 37.838 8.13732 38.1983C8.31256 38.373 8.41116 38.6105 8.41116 38.8577C8.41116 39.096 8.31952 39.3253 8.1559 39.498L8.13643 39.5174L5.27489 42.3686L5.27488 42.3686L5.27317 42.3703C5.09931 42.5452 4.86253 42.6441 4.61624 42.6446C4.37179 42.6423 4.13797 42.5438 3.96558 42.3703L3.96385 42.3686L1.10231 39.5174L1.10223 39.5173C0.926819 39.3426 0.828125 39.105 0.828125 38.8577C0.828125 38.6105 0.926707 38.373 1.10194 38.1983C1.46531 37.8378 2.05083 37.838 2.41335 38.1979C2.4135 38.1981 2.41366 38.1982 2.41382 38.1984L2.83514 38.6197L3.68869 39.4732V38.2661V35.9961H3.68869L3.68868 35.9939C3.68762 35.7469 3.78484 35.51 3.95859 35.3352Z" fill="#00E86D" stroke="#242A38"/>
<path d="M48.9211 27.3287V27.3293C48.9212 27.3292 48.9213 27.3291 48.9214 27.329L48.9211 27.3287ZM48.9211 27.3287L48.9208 27.329L48.9205 27.3287H48.9211ZM45.4315 29.368H45.432L45.4317 29.3683C45.4317 29.3682 45.4316 29.3681 45.4315 29.368ZM45.4315 29.368L45.4312 29.3683L45.4315 29.3686V29.368ZM44.8797 25.9312V26.1812H45.1297L45.3065 26.0044L45.1297 25.8276L44.8797 25.9312Z" fill="#00E86D" stroke="#242A38" stroke-width="0.5"/>
<path d="M11.4378 32.9628C11.0866 32.8525 10.6879 32.9359 10.4086 33.2128M11.4378 32.9628L10.4086 33.2128M11.4378 32.9628H11.2473L11.6597 33.3753M10.4086 33.2128L10.5852 33.3899C10.5851 33.3899 10.585 33.39 10.5849 33.3901C10.5848 33.3902 10.5848 33.3903 10.5847 33.3903L10.4086 33.2128ZM12.45 31.1671L12.6273 31.3433C12.6274 31.3433 12.6274 31.3433 12.6274 31.3432C12.6275 31.3432 12.6275 31.3431 12.6276 31.3431L12.45 31.1671ZM13.1693 31.1148C13.1695 31.1148 13.1697 31.1148 13.17 31.1148L13.173 31.1147L13.1726 30.9178L13.1725 30.8647L13.1683 31.1147L13.1693 31.1147L13.1693 31.1148ZM14.679 33.3902C14.6791 33.3901 14.6792 33.39 14.6793 33.3899L14.6796 33.3896L14.5028 33.2128L14.679 33.3902ZM15.9456 34.6627C16.0604 34.5481 16.1453 34.409 16.1951 34.2577V34.0606L15.7855 34.4688C15.78 34.4746 15.7745 34.4803 15.7689 34.4859C15.7688 34.486 15.7687 34.4861 15.7685 34.4862L15.9445 34.6627H15.9451L15.9453 34.663C15.9454 34.6629 15.9455 34.6628 15.9456 34.6627ZM10.5852 34.4863C10.5851 34.4862 10.5851 34.4862 10.5851 34.4862L10.4086 34.6633L10.5852 34.4863Z" fill="#00E86D" stroke="#242A38" stroke-width="0.5"/>
<path d="M8.16955 46.7897L8.16955 46.788C8.1678 46.2724 8.37101 45.7764 8.73451 45.4099C9.09744 45.0444 9.59088 44.8378 10.1067 44.8358C10.107 44.8358 10.1073 44.8358 10.1077 44.8358L10.1088 44.8358C10.627 44.8337 11.1247 45.0385 11.4909 45.4051L11.4913 45.4056C11.8578 45.7716 12.0629 46.2695 12.0611 46.7881V46.7897V50.6695V51.8766L12.9147 51.0231L13.635 50.3027C13.6352 50.3026 13.6354 50.3024 13.6355 50.3022C13.9997 49.9405 14.4927 49.7371 15.0058 49.7371C15.5195 49.7371 16.0122 49.9405 16.3771 50.3026C16.7434 50.6678 16.9494 51.1634 16.9494 51.6806C16.9494 52.1975 16.7432 52.6937 16.377 53.0582L16.3762 53.0589L16.3761 53.059L16.3756 53.0596L11.4857 57.9314L11.484 57.9331C11.12 58.2994 10.6252 58.506 10.108 58.507C9.61303 58.5022 9.13896 58.309 8.78209 57.9679L8.74494 57.9309L3.85445 53.0584L3.85404 53.058C3.48744 52.6936 3.28125 52.1975 3.28125 51.6806C3.28125 51.1635 3.48727 50.6679 3.85404 50.3027C4.21834 49.9406 4.71103 49.7371 5.22485 49.7371C5.73797 49.7371 6.23097 49.9405 6.59515 50.3022C6.59532 50.3024 6.59548 50.3026 6.59565 50.3027L7.316 51.0231L8.16955 51.8766V50.6695L8.16955 46.7897Z" fill="#00E86D" stroke="#242A38"/>
<path d="M56.6638 30.1764L56.6209 30.1725C56.107 30.1265 55.5962 30.2867 55.2003 30.6179L54.8794 30.2344L55.2003 30.6179C54.8044 30.9491 54.5565 31.424 54.5109 31.938L54.5109 31.9387C53.3648 44.6614 42.7098 54.6084 29.668 54.6084C28.1183 54.6084 26.5938 54.4739 25.1218 54.2031M56.6638 30.1764L25.2108 53.7111M56.6638 30.1764C57.1621 30.2315 57.62 30.4766 57.9421 30.8615C58.2733 31.2574 58.4335 31.7682 58.3874 32.2827L58.374 32.4329M56.6638 30.1764L58.374 32.4329M25.1218 54.2031C25.1213 54.203 25.1208 54.203 25.1203 54.2029L25.2108 53.7111M25.1218 54.2031C25.1224 54.2032 25.1229 54.2033 25.1234 54.2034L25.2108 53.7111M25.1218 54.2031C24.6159 54.1138 24.0952 54.2277 23.6735 54.5207C23.2509 54.8142 22.9619 55.2627 22.8695 55.7683L22.8691 55.7703C22.7744 56.2766 22.8844 56.8 23.1749 57.2246L23.1751 57.2248C23.4657 57.6499 23.9127 57.9423 24.4181 58.038M25.2108 53.7111C24.5746 53.5982 23.9192 53.7411 23.3882 54.11C22.8573 54.4789 22.4938 55.0426 22.3776 55.6784C22.2586 56.3147 22.3967 56.9728 22.7623 57.507C23.1279 58.0418 23.6905 58.4096 24.3268 58.5296M24.4181 58.038C24.4177 58.038 24.4174 58.0379 24.417 58.0379L24.3268 58.5296M24.4181 58.038C24.4185 58.0381 24.419 58.0382 24.4195 58.0383L24.3268 58.5296M24.4181 58.038C26.1159 58.3496 27.8777 58.4989 29.6685 58.4989C44.6319 58.4989 56.9794 47.0512 58.374 32.4329M24.3268 58.5296C26.0572 58.8472 27.8498 58.9989 29.6685 58.9989C44.6744 58.9989 57.0934 47.6834 58.8041 33.1159L58.2646 33.6556L58.374 32.4329" fill="#00E86D" stroke="#242A38"/>
<path d="M0.949158 27.0471L0.963524 26.8867C2.3554 12.3488 14.5803 0.949079 29.4356 0.831244H29.6686C31.4561 0.831244 33.2004 0.997498 34.902 1.30979L34.9028 1.30994C35.4117 1.40243 35.8627 1.69328 36.1566 2.11906C36.4498 2.54422 36.5619 3.06935 36.4679 3.57762C36.3722 4.0831 36.0799 4.53017 35.6547 4.82087C35.2297 5.11127 34.7061 5.22153 34.2001 5.12692L34.1545 5.1184H34.153C32.6952 4.85301 31.2033 4.72113 29.6685 4.72113C16.6267 4.72113 5.97242 14.686 4.82575 27.4075C4.77638 27.9183 4.52688 28.3891 4.13175 28.717L4.13154 28.7172C3.73677 29.0452 3.22716 29.2037 2.71525 29.1577L2.71464 29.1576C2.20061 29.1121 1.72572 28.8642 1.39451 28.4683L1.01102 28.7891L1.39451 28.4683C1.06333 28.0724 0.903146 27.5611 0.949158 27.0471Z" fill="#00E86D" stroke="#242A38"/>
</svg>
