<svg width="65" height="64" viewBox="0 0 65 64" fill="none" xmlns="http://www.w3.org/2000/svg">
<path d="M63.393 13.312L57.6925 8.17926C56.9829 7.54032 55.8762 7.46863 55.1703 8.11119C54.3575 8.84967 54.3761 10.1074 55.1723 10.8238L57.6482 13.0537L47.6519 13.0372C46.1415 13.0372 44.9131 14.2661 44.9131 15.776V25.3127C41.7828 23.0814 38.0249 21.6782 33.9534 21.4198C33.9534 21.4064 33.9571 5.6278 33.9571 5.6278L36.714 8.21245C37.0667 8.54301 37.5149 8.70649 37.9625 8.70649C38.4823 8.70649 39.0006 8.48525 39.3657 8.04948C39.998 7.29296 39.8556 6.15225 39.1373 5.4787L34.1463 0.799845C32.9819 -0.291878 31.161 -0.262491 30.0326 0.86637L25.3826 5.51737C24.7075 6.19241 24.5781 7.29393 25.183 8.0335C25.8787 8.88388 27.1349 8.9303 27.892 8.17325L30.3065 5.75877C30.3065 5.75877 30.3152 21.4584 30.3178 21.4966C26.1953 21.9345 22.4271 23.5527 19.3516 26.0033V15.7787C19.3516 14.2683 18.1227 13.0398 16.6101 13.0398L6.59021 13.0553L8.98924 10.8956C9.69884 10.2567 9.88604 9.16341 9.32134 8.39401C8.67156 7.50857 7.41897 7.39614 6.62369 8.11244L0.845257 13.3158C-0.574466 14.5303 0.0938893 15.4746 0.690545 16.261L5.8939 22.0389C6.25489 22.4391 6.75151 22.6428 7.25118 22.6428C7.65343 22.6428 8.05722 22.5102 8.39138 22.2426C9.2201 21.5779 9.23145 20.2881 8.52082 19.4991L6.00891 16.7092L15.7004 16.6937V27.6296C15.7004 28.1649 15.9345 28.6409 16.3006 28.975C13.0749 32.8159 11.1803 37.8109 11.334 43.254C11.6413 54.1368 20.354 63.1782 31.2199 63.8594C43.5831 64.6335 53.8517 54.8353 53.8517 42.6388C53.8517 36.9853 51.6415 31.851 48.0424 28.0416C48.3647 27.7126 48.5643 27.2629 48.5643 26.7658L48.5638 16.6901L58.2295 16.7056L55.716 19.4971C55.0048 20.2867 55.0172 21.5754 55.847 22.2401C56.1811 22.5077 56.5849 22.6403 56.9872 22.6403C57.4869 22.6403 57.9845 22.436 58.3444 22.0364L63.5478 16.2585C64.2925 15.5174 64.5431 14.16 63.3926 13.3124L63.393 13.312ZM50.1999 42.6345C50.1999 52.346 42.2999 60.2457 32.5887 60.2457C22.8774 60.2457 14.9762 52.3447 14.9762 42.6345C14.9762 32.9239 22.8772 25.0233 32.5874 25.0233C42.298 25.0228 50.1999 32.9233 50.1999 42.6345Z" fill="#00E86D"/>
<path d="M33.2608 41.0239H31.9154C30.7607 41.0239 29.8212 40.0843 29.8212 38.9297C29.8212 37.7751 30.7608 36.8355 31.9154 36.8355H36.3967C37.4049 36.8355 38.2228 36.0176 38.2228 35.0094C38.2228 34.0012 37.4049 33.1833 36.3967 33.1833H34.4134V30.5512C34.4134 29.543 33.5955 28.7251 32.5873 28.7251C31.5792 28.7251 30.7613 29.543 30.7613 30.5512V33.2993C28.1436 33.8346 26.168 36.1552 26.168 38.9292C26.168 42.0976 28.7459 44.675 31.9138 44.675H33.2592C34.4138 44.675 35.3534 45.6146 35.3534 46.7692C35.3534 47.9238 34.4138 48.8634 33.2592 48.8634H28.7778C27.7696 48.8634 26.9518 49.6813 26.9518 50.6895C26.9518 51.6977 27.7696 52.5155 28.7778 52.5155H30.7611V54.7171C30.7611 55.7253 31.579 56.5431 32.5872 56.5431C33.5954 56.5431 34.4133 55.7253 34.4133 54.7171V52.3995C37.0309 51.8642 39.0066 49.5436 39.0066 46.7696C39.0066 43.6006 36.4287 41.0238 33.2608 41.0238V41.0239Z" fill="#00E86D"/>
</svg>
