<svg width="50" height="67" viewBox="0 0 50 67" fill="none" xmlns="http://www.w3.org/2000/svg">
<path fill-rule="evenodd" clip-rule="evenodd" d="M2.01078 36.7826C2.4757 36.7826 2.89494 37.0628 3.07249 37.4923C3.25055 37.9218 3.15254 38.4159 2.82361 38.7449C2.49469 39.0738 2.00052 39.1718 1.57101 38.9938C1.14151 38.8162 0.861328 38.397 0.861328 37.932C0.861328 37.2973 1.37602 36.7826 2.01078 36.7826Z" fill="#00E86D"/>
<path d="M26.1494 64.3695H37.644V60.9212C37.6486 60.6944 37.7117 60.4727 37.8277 60.2777L46.8397 46.7824V30.0923C46.3537 30.2566 45.9129 30.5321 45.5522 30.897C44.9056 31.543 44.5418 32.4195 44.5407 33.3339V41.8861C44.5464 42.2371 44.3842 42.5702 44.1041 42.7826L32.0579 54.8288C31.8419 55.0463 31.5478 55.169 31.2415 55.169C30.9351 55.169 30.6411 55.0463 30.4256 54.8288C30.2034 54.6204 30.0772 54.329 30.0772 54.0242C30.0772 53.7193 30.2034 53.4279 30.4256 53.2195L35.7593 47.8858H35.7588C35.979 47.6667 36.1031 47.3691 36.1036 47.0586C36.1077 46.7538 35.9825 46.4613 35.7588 46.254C35.5505 46.0313 35.259 45.9056 34.9542 45.9056C34.6494 45.9056 34.3584 46.0313 34.1496 46.254L26.8162 53.5643C26.3862 53.9979 26.146 54.5854 26.1496 55.1966L26.1494 64.3695ZM11.9422 45.5645C12.1079 45.214 12.3337 44.8948 12.6087 44.6218C13.2584 43.9814 14.1332 43.6227 15.0457 43.6227C15.9576 43.6227 16.8329 43.9814 17.4822 44.6218L24.9993 52.139L32.5165 44.6218H32.5175C33.1667 43.9814 34.042 43.6227 34.954 43.6227C35.8664 43.6227 36.7412 43.9814 37.391 44.6218C37.666 44.8948 37.8918 45.214 38.0575 45.5645L42.2418 41.4033V33.334C42.2357 31.8079 42.8391 30.3424 43.9183 29.2632C44.9975 28.1841 46.463 27.5805 47.9891 27.5867C48.2939 27.5867 48.5864 27.7078 48.8019 27.9233C49.0174 28.1389 49.1385 28.4314 49.1385 28.7362V47.1274C49.1375 47.3548 49.0739 47.5775 48.9548 47.7709L39.9429 61.2662V64.3697H41.0923C41.7271 64.3697 42.2418 64.8844 42.2418 65.5192C42.2418 66.1539 41.7271 66.6686 41.0923 66.6686H8.90757C8.27281 66.6686 7.75811 66.1539 7.75811 65.5192C7.75811 64.8844 8.27281 64.3697 8.90757 64.3697H10.057V61.2662L1.04503 47.7709C0.925981 47.5775 0.862353 47.3548 0.861328 47.1274V42.5296C0.861328 41.8949 1.37602 41.3802 2.01078 41.3802C2.64555 41.3802 3.16024 41.8949 3.16024 42.5296V46.7826L12.1722 60.2779C12.2882 60.4729 12.3513 60.6946 12.3559 60.9214V64.3697H23.8505V55.1741C23.8541 54.5629 23.6139 53.9759 23.1839 53.5417L15.8043 46.2544C15.5959 46.0317 15.3045 45.906 14.9997 45.906C14.6948 45.906 14.4034 46.0317 14.195 46.2544C13.9718 46.4618 13.8466 46.7542 13.8502 47.0591C13.8502 47.3474 13.9569 47.6256 14.1488 47.8406L19.5282 53.2199H19.5287C19.7509 53.4282 19.8766 53.7197 19.8766 54.0245C19.8766 54.3293 19.7509 54.6208 19.5287 54.8291C19.1659 55.1709 18.6199 55.2273 18.195 54.9672C18.097 54.9277 18.0103 54.8646 17.9421 54.783L5.85019 42.7599C5.60798 42.5326 5.46737 42.218 5.45916 41.8866V33.3343C5.45814 32.4199 5.09432 31.5434 4.44775 30.8974C4.087 30.5325 3.6462 30.257 3.16025 30.0928V33.3343C3.16025 33.9691 2.64556 34.4838 2.0108 34.4838C1.37604 34.4838 0.861342 33.9691 0.861342 33.3343V28.7365C0.861342 28.1018 1.37604 27.5871 2.0108 27.5871C3.53688 27.5809 5.0024 28.1844 6.08158 29.2636C7.16072 30.3427 7.76425 31.8083 7.75807 33.3343V41.4037L11.9422 45.5645Z" fill="#00E86D"/>
<path d="M8.90743 22.9891H4.30961C3.67485 22.9891 3.16016 22.4744 3.16016 21.8396C3.16016 21.2049 3.67485 20.6902 4.30961 20.6902H8.90743C9.54219 20.6902 10.0569 21.2049 10.0569 21.8396C10.0569 22.4744 9.54219 22.9891 8.90743 22.9891Z" fill="#00E86D"/>
<path d="M13.6211 11.6089C13.3163 11.6125 13.0238 11.4873 12.8165 11.264L9.55177 8.04556C9.33265 7.82593 9.20898 7.52831 9.20898 7.21785C9.20898 6.90739 9.33265 6.60977 9.55177 6.39014C10.009 5.93343 10.75 5.93343 11.2073 6.39014L14.4257 9.65485C14.6479 9.86319 14.7741 10.1547 14.7741 10.4595C14.7741 10.7643 14.6479 11.0558 14.4257 11.2641C14.2184 11.4873 13.9259 11.6125 13.6211 11.6089V11.6089Z" fill="#00E86D"/>
<path d="M24.9991 6.89673C24.3643 6.89673 23.8496 6.38204 23.8496 5.74727V1.14945C23.8496 0.514693 24.3643 0 24.9991 0C25.6338 0 26.1485 0.514693 26.1485 1.14945V5.74727C26.1485 6.05208 26.0274 6.34458 25.8119 6.5601C25.5964 6.77562 25.3039 6.89673 24.9991 6.89673Z" fill="#00E86D"/>
<path d="M36.4948 11.6088C36.19 11.6124 35.8975 11.4872 35.6902 11.264C35.468 11.0557 35.3418 10.7642 35.3418 10.4594C35.3418 10.1546 35.468 9.86308 35.6902 9.65475L38.7938 6.39003C39.2443 5.93949 39.975 5.93949 40.4261 6.39003C40.8767 6.84109 40.8767 7.57182 40.4261 8.02239L37.1845 11.264C36.9772 11.4872 36.6847 11.6124 36.3799 11.6088H36.4948Z" fill="#00E86D"/>
<path d="M45.6906 22.9891H41.0928C40.4581 22.9891 39.9434 22.4744 39.9434 21.8396C39.9434 21.2049 40.4581 20.6902 41.0928 20.6902H45.6906C46.3254 20.6902 46.8401 21.2049 46.8401 21.8396C46.8401 22.4744 46.3254 22.9891 45.6906 22.9891Z" fill="#00E86D"/>
<path d="M24.9999 41.3803C24.8629 41.4024 24.7233 41.4024 24.5863 41.3803L23.5287 40.9436C20.2133 39.6279 17.3725 37.3418 15.3789 34.384C13.3853 31.4262 12.3313 27.9352 12.3559 24.3684V17.2418C12.3518 16.7758 12.635 16.3555 13.0687 16.1842L24.5632 11.5863C24.8429 11.4714 25.1569 11.4714 25.4366 11.5863L36.9311 16.1842C37.3647 16.3555 37.648 16.7758 37.6439 17.2418V24.3684C37.6547 27.9234 36.5945 31.3995 34.6015 34.3435C32.6089 37.2875 29.7758 39.5633 26.4711 40.8744L25.4135 41.3111V41.3116C25.2764 41.3332 25.1369 41.3332 24.9999 41.3116L24.9999 41.3803ZM14.6548 18.0234V24.3685C14.643 27.4664 15.5646 30.4961 17.2991 33.0629C19.0335 35.6296 21.5007 37.615 24.3791 38.7598L25 38.9897L25.5978 38.7598C28.4807 37.6186 30.9526 35.6348 32.6911 33.0675C34.4301 30.5007 35.3548 27.469 35.3451 24.3685V18.0234L25 13.8854L14.6548 18.0234Z" fill="#00E86D"/>
<path d="M22.7005 29.8859C22.3957 29.8895 22.1032 29.7643 21.8959 29.541L19.597 27.2421C19.1526 26.7977 19.1526 26.0773 19.597 25.6329C20.0413 25.1885 20.7618 25.1885 21.2062 25.6329L22.7005 27.1041L28.7926 21.0351C29.237 20.5907 29.9575 20.5907 30.4018 21.0351C30.8462 21.4795 30.8462 22.1999 30.4018 22.6443L23.5051 29.541C23.2978 29.7643 23.0053 29.8895 22.7005 29.8859Z" fill="#00E86D"/>
</svg>
